<svg width="49" height="292" viewBox="0 0 49 292" fill="none" xmlns="http://www.w3.org/2000/svg">
                                 <path fill-rule="evenodd" clip-rule="evenodd" d="M7 3.5C7 5.43311 5.43298 7 3.5 7C1.56702 7 0 5.43311 0 3.5C0 1.56689 1.56702 0 3.5 0C5.43298 0 7 1.56689 7 3.5ZM21 3.5C21 5.43311 19.433 7 17.5 7C15.567 7 14 5.43311 14 3.5C14 1.56689 15.567 0 17.5 0C19.433 0 21 1.56689 21 3.5ZM31.5 7C33.433 7 35 5.43311 35 3.5C35 1.56689 33.433 0 31.5 0C29.567 0 28 1.56689 28 3.5C28 5.43311 29.567 7 31.5 7ZM49 3.5C49 5.43311 47.433 7 45.5 7C43.567 7 42 5.43311 42 3.5C42 1.56689 43.567 0 45.5 0C47.433 0 49 1.56689 49 3.5ZM7 22.5C7 24.4331 5.43298 26 3.5 26C1.56702 26 0 24.4331 0 22.5C0 20.5669 1.56702 19 3.5 19C5.43298 19 7 20.5669 7 22.5ZM21 22.5C21 24.4331 19.433 26 17.5 26C15.567 26 14 24.4331 14 22.5C14 20.5669 15.567 19 17.5 19C19.433 19 21 20.5669 21 22.5ZM31.5 26C33.433 26 35 24.4331 35 22.5C35 20.5669 33.433 19 31.5 19C29.567 19 28 20.5669 28 22.5C28 24.4331 29.567 26 31.5 26ZM49 22.5C49 24.4331 47.433 26 45.5 26C43.567 26 42 24.4331 42 22.5C42 20.5669 43.567 19 45.5 19C47.433 19 49 20.5669 49 22.5ZM3.5 45C5.43298 45 7 43.4331 7 41.5C7 39.5669 5.43298 38 3.5 38C1.56702 38 0 39.5669 0 41.5C0 43.4331 1.56702 45 3.5 45ZM17.5 45C19.433 45 21 43.4331 21 41.5C21 39.5669 19.433 38 17.5 38C15.567 38 14 39.5669 14 41.5C14 43.4331 15.567 45 17.5 45ZM35 41.5C35 43.4331 33.433 45 31.5 45C29.567 45 28 43.4331 28 41.5C28 39.5669 29.567 38 31.5 38C33.433 38 35 39.5669 35 41.5ZM45.5 45C47.433 45 49 43.4331 49 41.5C49 39.5669 47.433 38 45.5 38C43.567 38 42 39.5669 42 41.5C42 43.4331 43.567 45 45.5 45ZM7 60.5C7 62.4331 5.43298 64 3.5 64C1.56702 64 0 62.4331 0 60.5C0 58.5669 1.56702 57 3.5 57C5.43298 57 7 58.5669 7 60.5ZM21 60.5C21 62.4331 19.433 64 17.5 64C15.567 64 14 62.4331 14 60.5C14 58.5669 15.567 57 17.5 57C19.433 57 21 58.5669 21 60.5ZM31.5 64C33.433 64 35 62.4331 35 60.5C35 58.5669 33.433 57 31.5 57C29.567 57 28 58.5669 28 60.5C28 62.4331 29.567 64 31.5 64ZM49 60.5C49 62.4331 47.433 64 45.5 64C43.567 64 42 62.4331 42 60.5C42 58.5669 43.567 57 45.5 57C47.433 57 49 58.5669 49 60.5ZM3.5 83C5.43298 83 7 81.4331 7 79.5C7 77.5669 5.43298 76 3.5 76C1.56702 76 0 77.5669 0 79.5C0 81.4331 1.56702 83 3.5 83ZM17.5 83C19.433 83 21 81.4331 21 79.5C21 77.5669 19.433 76 17.5 76C15.567 76 14 77.5669 14 79.5C14 81.4331 15.567 83 17.5 83ZM35 79.5C35 81.4331 33.433 83 31.5 83C29.567 83 28 81.4331 28 79.5C28 77.5669 29.567 76 31.5 76C33.433 76 35 77.5669 35 79.5ZM45.5 83C47.433 83 49 81.4331 49 79.5C49 77.5669 47.433 76 45.5 76C43.567 76 42 77.5669 42 79.5C42 81.4331 43.567 83 45.5 83ZM7 193.5C7 195.433 5.43298 197 3.5 197C1.56702 197 0 195.433 0 193.5C0 191.567 1.56702 190 3.5 190C5.43298 190 7 191.567 7 193.5ZM21 193.5C21 195.433 19.433 197 17.5 197C15.567 197 14 195.433 14 193.5C14 191.567 15.567 190 17.5 190C19.433 190 21 191.567 21 193.5ZM31.5 197C33.433 197 35 195.433 35 193.5C35 191.567 33.433 190 31.5 190C29.567 190 28 191.567 28 193.5C28 195.433 29.567 197 31.5 197ZM49 193.5C49 195.433 47.433 197 45.5 197C43.567 197 42 195.433 42 193.5C42 191.567 43.567 190 45.5 190C47.433 190 49 191.567 49 193.5ZM3.5 102C5.43298 102 7 100.433 7 98.5C7 96.5669 5.43298 95 3.5 95C1.56702 95 0 96.5669 0 98.5C0 100.433 1.56702 102 3.5 102ZM17.5 102C19.433 102 21 100.433 21 98.5C21 96.5669 19.433 95 17.5 95C15.567 95 14 96.5669 14 98.5C14 100.433 15.567 102 17.5 102ZM35 98.5C35 100.433 33.433 102 31.5 102C29.567 102 28 100.433 28 98.5C28 96.5669 29.567 95 31.5 95C33.433 95 35 96.5669 35 98.5ZM45.5 102C47.433 102 49 100.433 49 98.5C49 96.5669 47.433 95 45.5 95C43.567 95 42 96.5669 42 98.5C42 100.433 43.567 102 45.5 102ZM7 212.5C7 214.433 5.43298 216 3.5 216C1.56702 216 0 214.433 0 212.5C0 210.567 1.56702 209 3.5 209C5.43298 209 7 210.567 7 212.5ZM21 212.5C21 214.433 19.433 216 17.5 216C15.567 216 14 214.433 14 212.5C14 210.567 15.567 209 17.5 209C19.433 209 21 210.567 21 212.5ZM31.5 216C33.433 216 35 214.433 35 212.5C35 210.567 33.433 209 31.5 209C29.567 209 28 210.567 28 212.5C28 214.433 29.567 216 31.5 216ZM49 212.5C49 214.433 47.433 216 45.5 216C43.567 216 42 214.433 42 212.5C42 210.567 43.567 209 45.5 209C47.433 209 49 210.567 49 212.5ZM3.5 121C5.43298 121 7 119.433 7 117.5C7 115.567 5.43298 114 3.5 114C1.56702 114 0 115.567 0 117.5C0 119.433 1.56702 121 3.5 121ZM17.5 121C19.433 121 21 119.433 21 117.5C21 115.567 19.433 114 17.5 114C15.567 114 14 115.567 14 117.5C14 119.433 15.567 121 17.5 121ZM35 117.5C35 119.433 33.433 121 31.5 121C29.567 121 28 119.433 28 117.5C28 115.567 29.567 114 31.5 114C33.433 114 35 115.567 35 117.5ZM45.5 121C47.433 121 49 119.433 49 117.5C49 115.567 47.433 114 45.5 114C43.567 114 42 115.567 42 117.5C42 119.433 43.567 121 45.5 121ZM7 231.5C7 233.433 5.43298 235 3.5 235C1.56702 235 0 233.433 0 231.5C0 229.567 1.56702 228 3.5 228C5.43298 228 7 229.567 7 231.5ZM21 231.5C21 233.433 19.433 235 17.5 235C15.567 235 14 233.433 14 231.5C14 229.567 15.567 228 17.5 228C19.433 228 21 229.567 21 231.5ZM31.5 235C33.433 235 35 233.433 35 231.5C35 229.567 33.433 228 31.5 228C29.567 228 28 229.567 28 231.5C28 233.433 29.567 235 31.5 235ZM49 231.5C49 233.433 47.433 235 45.5 235C43.567 235 42 233.433 42 231.5C42 229.567 43.567 228 45.5 228C47.433 228 49 229.567 49 231.5ZM3.5 140C5.43298 140 7 138.433 7 136.5C7 134.567 5.43298 133 3.5 133C1.56702 133 0 134.567 0 136.5C0 138.433 1.56702 140 3.5 140ZM17.5 140C19.433 140 21 138.433 21 136.5C21 134.567 19.433 133 17.5 133C15.567 133 14 134.567 14 136.5C14 138.433 15.567 140 17.5 140ZM35 136.5C35 138.433 33.433 140 31.5 140C29.567 140 28 138.433 28 136.5C28 134.567 29.567 133 31.5 133C33.433 133 35 134.567 35 136.5ZM45.5 140C47.433 140 49 138.433 49 136.5C49 134.567 47.433 133 45.5 133C43.567 133 42 134.567 42 136.5C42 138.433 43.567 140 45.5 140ZM7 250.5C7 252.433 5.43298 254 3.5 254C1.56702 254 0 252.433 0 250.5C0 248.567 1.56702 247 3.5 247C5.43298 247 7 248.567 7 250.5ZM21 250.5C21 252.433 19.433 254 17.5 254C15.567 254 14 252.433 14 250.5C14 248.567 15.567 247 17.5 247C19.433 247 21 248.567 21 250.5ZM31.5 254C33.433 254 35 252.433 35 250.5C35 248.567 33.433 247 31.5 247C29.567 247 28 248.567 28 250.5C28 252.433 29.567 254 31.5 254ZM49 250.5C49 252.433 47.433 254 45.5 254C43.567 254 42 252.433 42 250.5C42 248.567 43.567 247 45.5 247C47.433 247 49 248.567 49 250.5ZM3.5 159C5.43298 159 7 157.433 7 155.5C7 153.567 5.43298 152 3.5 152C1.56702 152 0 153.567 0 155.5C0 157.433 1.56702 159 3.5 159ZM17.5 159C19.433 159 21 157.433 21 155.5C21 153.567 19.433 152 17.5 152C15.567 152 14 153.567 14 155.5C14 157.433 15.567 159 17.5 159ZM35 155.5C35 157.433 33.433 159 31.5 159C29.567 159 28 157.433 28 155.5C28 153.567 29.567 152 31.5 152C33.433 152 35 153.567 35 155.5ZM45.5 159C47.433 159 49 157.433 49 155.5C49 153.567 47.433 152 45.5 152C43.567 152 42 153.567 42 155.5C42 157.433 43.567 159 45.5 159ZM7 269.5C7 271.433 5.43298 273 3.5 273C1.56702 273 0 271.433 0 269.5C0 267.567 1.56702 266 3.5 266C5.43298 266 7 267.567 7 269.5ZM21 269.5C21 271.433 19.433 273 17.5 273C15.567 273 14 271.433 14 269.5C14 267.567 15.567 266 17.5 266C19.433 266 21 267.567 21 269.5ZM31.5 273C33.433 273 35 271.433 35 269.5C35 267.567 33.433 266 31.5 266C29.567 266 28 267.567 28 269.5C28 271.433 29.567 273 31.5 273ZM49 269.5C49 271.433 47.433 273 45.5 273C43.567 273 42 271.433 42 269.5C42 267.567 43.567 266 45.5 266C47.433 266 49 267.567 49 269.5ZM3.5 178C5.43298 178 7 176.433 7 174.5C7 172.567 5.43298 171 3.5 171C1.56702 171 0 172.567 0 174.5C0 176.433 1.56702 178 3.5 178ZM17.5 178C19.433 178 21 176.433 21 174.5C21 172.567 19.433 171 17.5 171C15.567 171 14 172.567 14 174.5C14 176.433 15.567 178 17.5 178ZM35 174.5C35 176.433 33.433 178 31.5 178C29.567 178 28 176.433 28 174.5C28 172.567 29.567 171 31.5 171C33.433 171 35 172.567 35 174.5ZM45.5 178C47.433 178 49 176.433 49 174.5C49 172.567 47.433 171 45.5 171C43.567 171 42 172.567 42 174.5C42 176.433 43.567 178 45.5 178ZM7 288.5C7 290.433 5.43298 292 3.5 292C1.56702 292 0 290.433 0 288.5C0 286.567 1.56702 285 3.5 285C5.43298 285 7 286.567 7 288.5ZM21 288.5C21 290.433 19.433 292 17.5 292C15.567 292 14 290.433 14 288.5C14 286.567 15.567 285 17.5 285C19.433 285 21 286.567 21 288.5ZM31.5 292C33.433 292 35 290.433 35 288.5C35 286.567 33.433 285 31.5 285C29.567 285 28 286.567 28 288.5C28 290.433 29.567 292 31.5 292ZM49 288.5C49 290.433 47.433 292 45.5 292C43.567 292 42 290.433 42 288.5C42 286.567 43.567 285 45.5 285C47.433 285 49 286.567 49 288.5Z" fill="currentColor"></path>
                              </svg>