<svg width="8" height="39" viewBox="0 0 8 39" fill="none" xmlns="http://www.w3.org/2000/svg">
                                       <path d="M3.64645 38.3536C3.84171 38.5488 4.15829 38.5488 4.35355 38.3536L7.53553 35.1716C7.7308 34.9763 7.7308 34.6597 7.53553 34.4645C7.34027 34.2692 7.02369 34.2692 6.82843 34.4645L4 37.2929L1.17157 34.4645C0.976311 34.2692 0.659728 34.2692 0.464466 34.4645C0.269204 34.6597 0.269204 34.9763 0.464466 35.1716L3.64645 38.3536ZM3.5 0V0.95H4.5V0H3.5ZM3.5 2.85V4.75H4.5V2.85H3.5ZM3.5 6.65V8.55H4.5V6.65H3.5ZM3.5 10.45V12.35H4.5V10.45H3.5ZM3.5 14.25V16.15H4.5V14.25H3.5ZM3.5 18.05V19.95H4.5V18.05H3.5ZM3.5 21.85V23.75H4.5V21.85H3.5ZM3.5 25.65V27.55H4.5V25.65H3.5ZM3.5 29.45V31.35H4.5V29.45H3.5ZM3.5 33.25V35.15H4.5V33.25H3.5ZM3.5 37.05V38H4.5V37.05H3.5Z" fill="currentColor"></path>
                                    </svg>